<svg width="681" height="945" viewBox="0 0 681 945" fill="none" xmlns="http://www.w3.org/2000/svg">
<path d="M486.107 651.103C394.106 667.293 307.14 660.933 240.917 637.588C174.676 614.237 129.295 573.94 120.211 522.319C111.127 470.699 140.025 417.33 194.315 372.769C248.59 328.219 328.16 292.553 420.162 276.363C512.163 260.173 599.128 266.532 665.352 289.877C731.593 313.228 776.974 353.526 786.058 405.146C795.142 456.766 766.244 510.135 711.954 554.697C657.678 599.247 578.109 634.912 486.107 651.103Z" stroke="url(#paint0_linear_275_1439)"/>
<path d="M222.359 559.452C184.837 469.403 174.668 377.987 188.535 302.993C202.402 227.994 240.29 169.485 298.826 145.094C357.363 120.703 425.586 134.998 488.606 177.96C551.621 220.919 609.373 292.508 646.894 382.557C684.416 472.605 694.585 564.021 680.718 639.015C666.851 714.014 628.963 772.523 570.427 796.914C511.89 821.305 443.667 807.011 380.647 764.049C317.632 721.09 259.88 649.501 222.359 559.452Z" stroke="url(#paint1_linear_275_1439)"/>
<defs>
<linearGradient id="paint0_linear_275_1439" x1="502.069" y1="245.722" x2="573.088" y2="993.261" gradientUnits="userSpaceOnUse">
<stop stop-color="#272626"/>
<stop offset="1" stop-color="white" stop-opacity="0"/>
</linearGradient>
<linearGradient id="paint1_linear_275_1439" x1="530.736" y1="154.048" x2="522.454" y2="1092.23" gradientUnits="userSpaceOnUse">
<stop stop-color="#272626"/>
<stop offset="0.940972" stop-color="white" stop-opacity="0"/>
</linearGradient>
</defs>
</svg>
