<svg width="30" height="30" viewBox="0 0 30 30" fill="none" xmlns="http://www.w3.org/2000/svg">
<path d="M23.568 24.9241L23.5671 24.9262L23.5658 24.9295L23.5645 24.9328L23.5611 24.9408L23.5584 24.9473L23.5583 24.9473L23.5489 24.9691L23.5471 24.9733C23.5369 24.9963 23.5239 25.0244 23.5078 25.0568L23.568 24.9241ZM23.568 24.9241L23.5688 24.922L23.5692 24.921M23.568 24.9241L23.5692 24.921M23.5692 24.921L23.591 24.8666C23.6024 24.838 23.6112 24.8084 23.6172 24.7782M23.5692 24.921L23.6172 24.7782M23.6172 24.7782L27.3657 5.87938C27.372 5.84734 27.3752 5.81476 27.3752 5.7821M23.6172 24.7782L27.3752 5.7821M27.3752 5.7821V5.72072C27.3752 5.12525 27.1494 4.53396 26.5955 4.17321C26.1279 3.86867 25.6141 3.85927 25.3053 3.8827C24.9688 3.90824 24.6612 3.99085 24.4582 4.05548C24.3519 4.08932 24.2627 4.12199 24.1981 4.14703C24.1656 4.15962 24.1388 4.17048 24.1186 4.17886L24.1163 4.17983M27.3752 5.7821L24.1163 4.17983M24.1163 4.17983L24.1055 4.18437L3.21832 12.3781L3.21729 12.3785M24.1163 4.17983L3.21729 12.3785M3.21729 12.3785C3.20276 12.3838 3.18438 12.3906 3.16271 12.3991L3.16268 12.3991M3.21729 12.3785L3.16268 12.3991M3.16268 12.3991C3.11953 12.4159 3.06216 12.4394 2.99534 12.4697M3.16268 12.3991L3.18819 15.823M3.18819 15.823L2.97616 16.2683C2.85808 16.2121 2.69551 16.1256 2.5238 16.0041C2.21576 15.7861 1.68265 15.3149 1.5851 14.5351C1.46064 13.5402 2.2029 12.9491 2.49233 12.7509L2.77484 13.1634L2.49233 12.7509C2.68185 12.6211 2.86545 12.5285 2.99534 12.4697M3.18819 15.823L2.97617 16.2683C3.0364 16.297 3.08822 16.3193 3.12801 16.3355C3.14799 16.3436 3.16516 16.3503 3.17907 16.3556L3.18152 16.3565M3.18819 15.823L3.18152 16.3565M2.99534 12.4697L3.20174 12.9251L2.99533 12.4697C2.99534 12.4697 2.99534 12.4697 2.99534 12.4697ZM3.18152 16.3565L3.19481 16.3615L3.19561 16.3618M3.18152 16.3565L3.19561 16.3618M3.19561 16.3618L3.2041 16.3649L3.21864 16.3701M3.19561 16.3618L3.21864 16.3701M3.21864 16.3701L6.54211 17.4889C6.55566 17.6425 6.58227 17.7962 6.62249 17.9488L8.45409 24.8968C8.72918 25.9403 9.6732 26.6672 10.7524 26.6664C11.6873 26.6657 12.5197 26.1192 12.9036 25.2943L15.3958 22.6296L19.9473 26.1191C19.9794 26.1437 20.0144 26.1644 20.0515 26.1806M3.21864 16.3701L20.0515 26.1806M20.0515 26.1806L20.1213 26.211L20.3213 25.7528M20.0515 26.1806L20.3213 25.7528M20.3213 25.7528L20.1214 26.211C20.6379 26.4364 21.1473 26.5189 21.6333 26.4525M20.3213 25.7528L21.6333 26.4525M21.6333 26.4525C22.1182 26.3862 22.5031 26.1823 22.7882 25.9541M21.6333 26.4525L22.7882 25.9541M22.7882 25.9541C23.0669 25.7312 23.2548 25.4824 23.3713 25.2987L22.7882 25.9541ZM9.42575 17.3043L20.2017 10.4611C17.6737 12.8965 12.5364 17.8564 11.882 18.4883C11.7583 18.6077 11.6867 18.7469 11.6492 18.8903L10.7492 22.3245L9.42575 17.3043ZM21.7368 8.96648C21.7368 8.96649 21.7365 8.96692 21.736 8.96777L21.7368 8.96648Z" stroke="white" stroke-linejoin="round"/>
</svg>
