<svg width="30" height="30" viewBox="0 0 30 30" fill="none" xmlns="http://www.w3.org/2000/svg">
<path d="M15.0356 23.477L15.0523 23.4782H15.0691C15.9755 23.4782 16.6244 23.384 17.0443 23.1042C17.5435 22.7715 17.6059 22.2702 17.6059 21.8777V19.3131C17.6059 19.1211 17.6159 18.994 17.6318 18.909C17.6368 18.8827 17.6417 18.8638 17.6458 18.8506C17.6821 18.843 17.7467 18.8358 17.8585 18.8358C18.0751 18.8358 18.6622 18.9086 20.3385 20.5241C20.8121 20.9979 21.1879 21.4072 21.5039 21.7575C21.5642 21.8244 21.6229 21.8897 21.6801 21.9533C21.9186 22.2189 22.1309 22.4552 22.3247 22.6501C22.5668 22.8935 22.8109 23.1046 23.0892 23.2516C23.3787 23.4044 23.6823 23.4762 24.0274 23.4762H26.8793C27.348 23.4762 27.8315 23.3616 28.1432 23.0003C28.4723 22.6187 28.484 22.1145 28.3345 21.6289L28.3226 21.5901L28.3045 21.5537C27.6697 20.2749 26.8313 19.1079 25.8222 18.0981C25.482 17.6988 25.0691 17.2948 24.7169 16.9501L24.6809 16.9149C24.2909 16.5332 24.0213 16.2632 23.9166 16.1051L23.9056 16.0885L23.8934 16.0729C23.711 15.8399 23.721 15.7653 23.7216 15.7606L23.7217 15.7604C23.7226 15.7494 23.7273 15.7203 23.7583 15.6572C23.7902 15.5925 23.8376 15.5154 23.9107 15.4034C25.4355 13.3284 26.7339 11.0961 27.7835 8.74468L27.7968 8.71492L27.8061 8.68369C27.9112 8.33118 27.961 7.8787 27.6967 7.50464C27.4264 7.1222 26.9585 7.00293 26.4727 7.00293H23.6367C23.2668 6.98137 22.8996 7.07929 22.5895 7.28248L22.863 7.69995L22.5895 7.28249C22.2782 7.48641 22.0412 7.78531 21.9136 8.13458C21.0574 10.1793 19.9096 12.0893 18.5059 13.8049C17.9744 14.3349 17.7708 14.4708 17.6478 14.5053C17.6287 14.4543 17.6059 14.3599 17.6059 14.2016V8.54086C17.6059 8.15548 17.5585 7.75127 17.3262 7.44489C17.0651 7.10057 16.674 7.00293 16.2908 7.00293H11.8196C11.511 6.99314 11.2103 7.10235 10.9797 7.30822C10.7463 7.5167 10.6032 7.80791 10.5809 8.12011L10.5796 8.13793V8.15579C10.5796 8.46761 10.6998 8.70598 10.8273 8.89291C10.8883 8.98232 10.957 9.06842 11.0175 9.14385C11.0224 9.14987 11.0272 9.15586 11.0319 9.16182C11.0902 9.23442 11.1449 9.30256 11.2001 9.37774C11.4177 9.67371 11.6614 10.099 11.7172 10.9398V15.1184C11.7172 15.3358 11.7076 15.4914 11.6916 15.6024C11.6864 15.6383 11.6808 15.6674 11.6754 15.6907C11.6525 15.6821 11.6096 15.6628 11.5444 15.6198C11.428 15.543 11.2808 15.4173 11.1069 15.2351C10.7601 14.8718 10.3518 14.3314 9.92023 13.6498C9.05888 12.2893 8.13949 10.4214 7.45992 8.42107L7.45693 8.41226L7.45361 8.40356C7.30725 8.02024 7.1355 7.65138 6.84759 7.39001C6.53339 7.10477 6.14793 7.00293 5.70227 7.00293H2.85234C2.37648 7.00293 1.97076 7.11521 1.69514 7.40596C1.42249 7.69358 1.375 8.05434 1.375 8.31803V8.37128L1.38622 8.42334C2.14514 11.9459 3.71324 15.2433 5.96634 18.055C6.93953 19.6065 8.26558 20.9062 9.83654 21.8482C11.4161 22.7953 13.198 23.3535 15.0356 23.477Z" stroke="white"/>
</svg>
