<svg width="30" height="30" viewBox="0 0 30 30" fill="none" xmlns="http://www.w3.org/2000/svg">
<path d="M12.2867 9.31091L12.287 9.31158C12.4502 9.67539 12.7215 10.3361 12.9388 10.8653L12.9423 10.8737C13.0278 11.0821 13.1052 11.2704 13.1655 11.4154C13.1957 11.488 13.2211 11.5483 13.2408 11.5943C13.2507 11.6172 13.2586 11.6355 13.2648 11.6493C13.2716 11.6646 13.274 11.6693 13.2731 11.6676L12.8263 11.892M12.2867 9.31091L21.9812 17.6868C21.9812 17.6867 21.9812 17.6867 21.9811 17.6866C21.8872 17.5284 21.7512 17.4311 21.6514 17.3702C21.5553 17.3115 21.4414 17.2569 21.3406 17.2086L21.3271 17.2021L21.1109 17.653L21.3271 17.2021C21.2717 17.1756 21.2155 17.1486 21.1557 17.1188L21.1556 17.1188C20.9926 17.0377 20.5145 16.8028 20.0398 16.5743C19.5795 16.3527 19.0822 16.1173 18.9064 16.0517L18.9064 16.0517L18.9063 16.0517C18.7687 16.0004 18.5324 15.9122 18.2788 15.9421C17.9728 15.9781 17.7511 16.1622 17.5924 16.4023C17.3949 16.6933 16.8044 17.3825 16.6089 17.6094L16.6089 17.6095C16.6088 17.6096 16.6087 17.6097 16.6086 17.6097C16.5862 17.6022 16.5545 17.5894 16.5117 17.5681C16.447 17.5359 16.3651 17.5006 16.2855 17.4662L16.2756 17.462L16.2745 17.4615C15.8386 17.2734 15.0008 16.9119 14.0307 16.0482L14.0298 16.0475C13.1409 15.2597 12.5272 14.2748 12.3435 13.9594C12.3455 13.9572 12.3477 13.9549 12.35 13.9525C12.3641 13.9377 12.3797 13.922 12.3998 13.902L12.4 13.9018C12.508 13.7943 12.6265 13.651 12.7256 13.5313L12.7352 13.5196L12.35 13.2009L12.7352 13.5196C12.7966 13.4454 12.8531 13.3771 12.9065 13.3159L12.9066 13.3158C13.0927 13.1021 13.177 12.9271 13.262 12.7506L13.2661 12.7421L13.2661 12.7421L13.3004 12.6712C13.5015 12.2591 13.3893 11.8989 13.2731 11.6675L12.8263 11.892M12.2867 9.31091C12.1418 8.9893 11.9603 8.75037 11.7151 8.60821C11.4795 8.47163 11.2482 8.46574 11.1319 8.46278C11.1286 8.4627 11.1253 8.46262 11.1222 8.46253M12.2867 9.31091L11.1222 8.46253M12.8263 11.892C12.9067 12.052 12.9561 12.2366 12.851 12.4519L11.1073 8.96231C11.336 8.96844 11.5896 8.98081 11.8308 9.51628C11.9907 9.87274 12.2602 10.5289 12.4797 11.0635L12.4797 11.0636L12.4798 11.0637C12.6506 11.4796 12.7911 11.8219 12.8263 11.892ZM11.1222 8.46253C10.9288 8.45618 10.7063 8.45618 10.4943 8.45618H10.4889C10.1581 8.45618 9.66977 8.57738 9.26283 9.01619C9.24717 9.03307 9.22942 9.05184 9.2078 9.07468L9.2078 9.07469C8.84685 9.45616 8.00397 10.3507 8.00397 12.0336C8.00397 12.923 8.32315 13.77 8.64395 14.404C8.96812 15.0446 9.31611 15.5103 9.41364 15.6408L9.41369 15.6408L9.41373 15.6409L9.42021 15.6496C9.42017 15.6495 9.42028 15.6497 9.42056 15.6501C9.42169 15.6516 9.42562 15.6572 9.43389 15.6693L9.47266 15.7264L9.88679 15.4462L9.47266 15.7264L9.4784 15.7349C9.89323 16.3481 11.965 19.4106 15.1414 20.6597C16.3871 21.15 17.2111 21.3849 17.8078 21.485C18.423 21.5881 18.7852 21.5455 19.0795 21.5099C19.138 21.5029 19.1872 21.4969 19.2355 21.4924C19.2357 21.4923 19.2359 21.4923 19.236 21.4923L19.1891 20.9945M11.1222 8.46253L21.3657 19.4682C21.0937 20.2191 19.7827 20.9391 19.1891 20.9945M19.1891 20.9945C19.1329 20.9998 19.077 21.0066 19.0194 21.0135L19.0194 21.0136C18.4754 21.0794 17.7848 21.1629 15.3244 20.1944L19.1891 20.9945ZM9.33579 25.3369C9.22428 25.2765 9.09399 25.2608 8.97129 25.2928L3.21212 26.7971L4.75038 21.2134C4.78598 21.0842 4.7682 20.946 4.70101 20.83C3.6546 19.0233 3.10423 16.9745 3.10498 14.8894V14.8892C3.10498 8.33607 8.46871 3 15.0523 3C18.2531 3 21.249 4.24013 23.505 6.48551C25.7603 8.7304 26.9999 11.7171 26.9999 14.8953C26.9999 21.4483 21.6361 26.7844 15.0524 26.7844H15.0463C13.0459 26.7844 11.0809 26.2822 9.33579 25.3369Z" stroke="white" stroke-linejoin="round"/>
</svg>
